<svg width="1459" height="136" viewBox="0 0 1459 136" fill="none" xmlns="http://www.w3.org/2000/svg">
<path d="M379.5 33.0388C251.9 23.4388 120 49.7054 70 64.0388V125.539H1458.5V64.0388C1394.5 43.2054 1238.4 1.23877 1126 0.038771C985.5 -1.46123 781.5 41.0388 738 45.0388C694.5 49.0388 539 45.0388 379.5 33.0388Z" fill="#86BCED" fill-opacity="0.4"/>
<path d="M309.5 43.0388C181.9 33.4388 50 59.7054 0 74.0388V135.539H1388.5V74.0388C1324.5 53.2054 1168.4 11.2388 1056 10.0388C915.5 8.53877 711.5 51.0388 668 55.0388C624.5 59.0388 469 55.0388 309.5 43.0388Z" fill="#86BCED" fill-opacity="0.4"/>
</svg>
